<svg width="20" height="20" viewBox="0 0 20 21" fill="none" xmlns="http://www.w3.org/2000/svg">
<mask id="mask0_4671_6777" style="mask-type: alpha" maskUnits="userSpaceOnUse" x="2" y="3" width="16" height="16">
<path d="M10 3.21484C5.84817 3.21484 2.5 6.56306 2.5 10.7148C2.5 14.8666 5.84821 18.2148 10 18.2148C14.1518 18.2148 17.5 14.8666 17.5 10.7148C17.5 6.56306 14.1518 3.21484 10 3.21484ZM10.5357 15.0006C10.5357 15.2952 10.2946 15.5362 10 15.5362C9.70536 15.5362 9.46433 15.2952 9.46433 15.0006V9.37556C9.46433 9.08091 9.70536 8.83989 10 8.83989C10.2946 8.83989 10.5357 9.08092 10.5357 9.37556V12.1881V15.0006ZM10 7.76842C9.54467 7.76842 9.19638 7.42014 9.19638 6.9648C9.19638 6.50946 9.54465 6.16118 10 6.16118C10.4553 6.16118 10.8036 6.50945 10.8036 6.9648C10.8036 7.42032 10.4553 7.76842 10 7.76842Z" fill="#141ED2"/>
</mask>
<g mask="url(#mask0_4671_6777)">
<rect y="0.402344" width="20" height="20" fill="#141ED2"/>
</g>
</svg>
