<svg width="49" height="24" viewBox="0 0 49 24" fill="none" xmlns="http://www.w3.org/2000/svg">
<path d="M42.5025 18.1305C40.9249 18.1305 39.4483 18.0968 38.2975 18.0348V5.78389C38.6984 5.75012 39.9386 5.72199 41.695 5.67978C42.6905 5.64188 43.6874 5.6899 44.6742 5.82328C46.5402 6.10465 47.218 6.97972 47.5121 7.45806C47.8299 7.94646 47.9785 8.52148 47.9361 9.09846C47.91 9.91872 47.4888 10.679 46.7998 11.1497L46.6556 11.2622L46.82 11.341C47.3237 11.6007 47.7342 12.0042 47.9967 12.4974C48.2996 13.042 48.4545 13.6533 48.4466 14.2729C48.4466 15.5926 47.9592 16.5914 46.9699 17.2611C46.1047 17.8548 44.8761 18.1305 42.4968 18.1305H42.5025ZM41.2422 15.5981C41.9073 15.6452 42.5743 15.6593 43.2408 15.6404C43.7715 15.6235 44.4752 15.5813 44.9713 15.0776C45.4198 14.6314 45.4995 13.9446 45.1645 13.4119C44.856 12.9026 44.2387 12.6522 42.7419 12.6691C41.9834 12.6691 41.2537 12.7479 41.2277 12.7507L41.2422 15.5981ZM42.6496 8.0011C42.1785 7.98911 41.707 8.01168 41.2393 8.06863V10.4716H41.346C41.346 10.4716 41.9228 10.5194 42.6092 10.5194C43.6994 10.5194 44.3397 10.4378 44.7146 10.1086C45.0977 9.76541 45.1982 9.21459 44.9598 8.76361C44.5819 8.02361 43.4024 7.98985 42.6525 7.98985" fill="#141ED2"/>
<path fill-rule="evenodd" clip-rule="evenodd" d="M35.4278 5.77539H32.512C32.2496 6.29874 30.4326 9.96218 29.5991 12.05L29.5443 12.1935H29.4462L29.3885 12.05C28.555 9.96218 26.7381 6.29874 26.4785 5.77539H23.5599C22.9311 10.2014 22.6197 17.0472 22.5735 18.0376H25.4778C25.5037 17.216 25.6768 12.0528 25.7979 10.8907L25.8267 10.6094H25.8988L26.0171 10.8683C26.9832 13.0235 28.2321 15.9864 28.4368 16.476H30.5451C30.7498 15.9864 31.9871 13.0235 32.9648 10.8683L33.0831 10.6094H33.1523L33.184 10.8907C33.3051 12.0528 33.4724 17.216 33.507 18.0376H36.417C36.3767 17.0556 36.0623 10.2098 35.4335 5.78383" fill="#141ED2"/>
<path fill-rule="evenodd" clip-rule="evenodd" d="M11.7731 16.3154C12.0662 16.1879 12.4067 16.2222 12.6668 16.4056C12.8847 16.5617 13.0208 16.8037 13.0388 17.0668C13.036 17.0696 13.3244 20.3729 13.3244 20.4461C13.347 20.7211 13.2672 20.9949 13.0994 21.217C12.9146 21.4666 12.6355 21.6341 12.3239 21.6827C12.0122 21.7312 11.6935 21.6568 11.4382 21.4759C11.0915 21.2204 10.9084 20.8055 10.9566 20.3842C10.9566 20.3758 11.2449 17.0246 11.2449 17.0246C11.2788 16.7133 11.48 16.443 11.7731 16.3154ZM6.36063 14.4169C6.71196 13.9796 7.33144 13.8461 7.8389 14.0983C8.05094 14.2072 8.22551 14.3745 8.34072 14.5795L10.3394 17.8856C10.5548 18.241 10.4524 18.6962 10.1067 18.932C9.76104 19.1679 9.28777 19.1056 9.01845 18.7888L6.39689 15.8935C6.02452 15.473 6.00935 14.8543 6.36063 14.4169ZM4.75583 15.7106C4.91096 15.6788 5.07187 15.6866 5.22304 15.7331C5.69549 15.8845 5.9534 16.3802 5.79986 16.8417C5.71344 17.0907 5.51948 17.2902 5.26919 17.3876L2.05346 18.6959C1.62461 18.869 1.13173 18.7827 0.791405 18.4748C0.45108 18.167 0.3256 17.694 0.470105 17.2638C0.610959 16.8621 0.960418 16.5641 1.38724 16.4816L4.75583 15.7106ZM15.1096 12.531C15.3792 12.4732 15.6605 12.5527 15.8566 12.7421C16.0491 12.9317 16.1302 13.2035 16.0719 13.4643C16.0137 13.7251 15.8241 13.9393 15.5682 14.0336L11.9429 15.5727C11.4185 15.793 10.8076 15.6183 10.4882 15.1566C10.1687 14.695 10.231 14.0769 10.6364 13.6847C10.8068 13.5212 11.0222 13.4097 11.2565 13.3639L15.0952 12.5198L15.1096 12.531ZM4.34629 10.8625C4.63761 10.3826 5.2379 10.1732 5.7751 10.364C6.3123 10.5547 6.63411 11.0916 6.54107 11.6419C6.5001 11.8714 6.39193 12.0845 6.22962 12.2553L3.63393 15.1309H3.61374C3.37529 15.3939 2.98726 15.4712 2.66223 15.3205C2.3372 15.1698 2.15363 14.8274 2.21208 14.481C2.22865 14.3748 2.26796 14.2731 2.32744 14.1827C2.32744 14.1743 4.34629 10.8625 4.34629 10.8625ZM14.9796 9.74056L15.1385 9.76518L18.5359 10.539C18.8062 10.6028 19.0444 10.7584 19.2079 10.9779C19.3936 11.2267 19.4703 11.5373 19.4211 11.8413C19.3719 12.1454 19.2008 12.4178 18.9454 12.5986C18.59 12.8419 18.1293 12.8836 17.7341 12.7084L14.5444 11.4112C14.4009 11.3487 14.2759 11.252 14.181 11.1298C14.0403 10.9422 13.982 10.7078 14.0188 10.4782C14.0556 10.2486 14.1845 10.0426 14.3771 9.90587C14.5976 9.75263 14.8758 9.70118 15.1385 9.76518L14.9796 9.74056ZM11.7641 5.81753C12.1624 5.62116 12.6484 5.77587 12.8514 6.16362C12.9022 6.25972 12.9317 6.36518 12.9379 6.47312C12.9379 6.48157 13.3129 10.311 13.3129 10.311C13.3642 10.865 13.005 11.3765 12.4568 11.5298C11.9088 11.6831 11.3263 11.4349 11.069 10.9385C10.9628 10.7295 10.9207 10.495 10.9479 10.2632C10.9479 10.2576 11.3257 6.44499 11.3257 6.44499C11.3542 6.17713 11.5189 5.94126 11.7641 5.81753ZM1.19112 5.78095C1.62539 5.78972 2.02298 6.02053 2.23804 6.38872L4.02904 9.26998C4.10772 9.40356 4.14946 9.55485 4.15017 9.70889C4.15017 10.1937 3.74731 10.5868 3.25035 10.5868C2.98112 10.584 2.72683 10.4656 2.55528 10.2632H2.55817L0.288408 7.69428C0.102115 7.48624 -0.000376389 7.21927 1.03871e-06 6.94302C1.03871e-06 6.63482 0.125495 6.33924 0.348873 6.12131C0.572251 5.90338 0.87522 5.78095 1.19112 5.78095ZM4.67339 6.55746L4.78178 6.57161L8.64066 7.41572C9.19509 7.54162 9.58073 8.03265 9.56106 8.58771C9.5414 9.1427 9.1219 9.60661 8.55993 9.69487C8.32332 9.72837 8.08188 9.69413 7.86487 9.59638L4.25112 8.05725L4.25689 8.07414C4.0057 7.96434 3.82721 7.73954 3.78101 7.47481C3.71191 7.04363 4.01398 6.63936 4.45588 6.57161C4.56343 6.55039 4.67424 6.55039 4.78178 6.57161L4.67339 6.55746ZM11.1094 2.15406C11.7346 1.95645 12.4056 2.2901 12.6092 2.8997C12.735 3.30524 12.6331 3.74548 12.3409 4.05895L10.0856 6.611C9.97934 6.72631 9.84416 6.81262 9.69336 6.86142C9.22113 7.01106 8.71385 6.75922 8.55993 6.29868C8.47994 6.04678 8.51681 5.77337 8.66087 5.55022C8.66375 5.5446 10.423 2.7168 10.4605 2.65209C10.6075 2.41454 10.8382 2.23746 11.1094 2.15406Z" fill="#EB2D4B"/>
</svg>
